<svg width="20" height="20" viewBox="0 0 20 20" fill="none" xmlns="http://www.w3.org/2000/svg">
<path d="M19.375 4.13672H0.625V15.8636H19.375V4.13672Z" fill="#218F36"/>
<path d="M5.08964 8.98146C5.42132 9.01189 5.23862 8.41814 5.35792 8.31044C5.38062 8.25802 5.42273 8.25802 5.4262 8.32423V8.82962C5.42409 8.99251 5.53097 9.03946 5.61515 9.07259C5.70202 9.06708 5.75991 9.06982 5.79374 9.15544C5.80823 9.44544 5.82128 9.73536 5.8344 10.0253C5.8344 10.0253 6.0371 10.086 6.04679 9.53653C6.05573 9.21341 5.98269 8.94556 6.02538 8.88204C6.02679 8.82126 6.10468 8.81575 6.16054 8.84892C6.24749 8.90962 6.28605 8.98423 6.42054 8.9538C6.62601 8.89587 6.74804 8.79919 6.75148 8.63903C6.73976 8.48993 6.72323 8.33798 6.65913 8.18892C6.66808 8.16126 6.61847 8.09228 6.62878 8.06466C6.66534 8.12271 6.7205 8.11708 6.73288 8.06466C6.69905 7.94872 6.64464 7.84099 6.55702 7.79126C6.48394 7.72778 6.3764 7.74157 6.3378 7.87685C6.3219 8.02591 6.39433 8.21103 6.50671 8.36009C6.53019 8.4181 6.56261 8.5147 6.54808 8.60306C6.48882 8.63349 6.43023 8.62243 6.38054 8.57001C6.38054 8.57001 6.21573 8.44571 6.21573 8.42083C6.25987 8.14193 6.22612 8.1088 6.20194 8.0315C6.18542 7.92653 6.13366 7.89064 6.09374 7.82157C6.05308 7.77466 5.99784 7.77466 5.97167 7.82157C5.89933 7.94587 5.93241 8.21376 5.9848 8.33517C6.02128 8.44568 6.07995 8.51466 6.05308 8.51466C6.03026 8.57821 5.98409 8.56169 5.95034 8.48985C5.90202 8.34079 5.89382 8.117 5.89382 8.01763C5.87866 7.89333 5.8621 7.62821 5.78069 7.55923C5.73105 7.49294 5.65659 7.5261 5.63038 7.58966C5.62562 7.7111 5.62562 7.8354 5.6387 7.94864C5.69589 8.14743 5.71179 8.32415 5.74003 8.52849C5.74698 8.80189 5.58284 8.6472 5.58972 8.50915C5.62839 8.33513 5.61659 8.05626 5.58421 7.98728C5.55733 7.91544 5.52565 7.89892 5.45944 7.91267C5.40698 7.9072 5.27397 8.05349 5.23667 8.29653C5.23667 8.29653 5.20425 8.42075 5.1912 8.53396C5.17187 8.65825 5.0898 8.74661 5.03261 8.51458C4.98159 8.34622 4.95194 7.93196 4.86847 8.02857C4.84483 8.35185 4.81519 8.92349 5.08964 8.98146Z" fill="#F7F7F7"/>
<path d="M4.90485 9.7709C5.19305 9.63281 5.47711 9.50027 5.7702 9.35387C5.72188 9.28488 5.76742 9.22133 5.58949 9.21582C5.31719 9.22133 4.91656 9.5748 4.90485 9.7709Z" fill="#F7F7F7"/>
<path d="M7.09616 10.2765C7.21339 9.88156 7.09339 9.58617 7.13339 9.54746C7.13339 9.54746 7.13409 9.54746 7.1355 9.54746C7.1355 9.54746 7.1355 9.54746 7.13683 9.54746H7.13823C7.13956 9.54746 7.14167 9.54469 7.14167 9.54469C7.29061 9.70207 7.49327 9.56403 7.53882 9.51156C7.55952 9.48391 7.6064 9.46738 7.64085 9.50051C7.75393 9.5834 7.95393 9.54469 7.99522 9.40113C8.0187 9.26028 8.03936 9.11391 8.04491 8.96207C7.96901 8.9841 7.90976 9.00348 7.88632 9.02832C7.88077 9.03383 7.87597 9.04207 7.87456 9.05047C7.86905 9.08903 7.86284 9.13324 7.85601 9.17465C7.85601 9.17742 7.85323 9.18301 7.85257 9.18578C7.84979 9.19125 7.84354 9.19403 7.83808 9.1968C7.81186 9.21336 7.76776 9.20231 7.76354 9.16367C7.72913 9.00633 7.58429 8.98141 7.49601 9.23C7.43538 9.27965 7.32917 9.28793 7.31745 9.21887C7.33261 9.05051 7.26436 9.02836 7.12995 9.10571C7.0871 8.77434 7.043 8.45953 6.9996 8.12821C7.05679 8.12821 7.10647 8.16961 7.1589 8.10606C7.10304 7.93207 6.98581 7.57863 6.9196 7.54551H6.91827C6.9155 7.54266 6.91136 7.53719 6.90788 7.53442C6.90788 7.53442 6.90515 7.53442 6.90374 7.53164C6.90241 7.53164 6.90097 7.53164 6.89964 7.53164C6.89686 7.52887 6.89272 7.52887 6.89202 7.52613C6.88518 7.52613 6.87897 7.52336 6.87272 7.52613C6.8562 7.52613 6.83831 7.53719 6.81761 7.54266C6.74729 7.56203 6.67972 7.62555 6.70171 7.7443C6.78518 8.25246 6.83827 8.63903 6.92167 9.14438C6.93616 9.20508 6.88518 9.28242 6.82167 9.27692C6.71206 9.20231 6.68518 9.05047 6.49897 9.05871C6.36386 9.06149 6.21007 9.20781 6.19007 9.34867C6.16936 9.46188 6.16042 9.58344 6.19007 9.68004C6.28593 9.79598 6.40104 9.78223 6.49897 9.75738C6.58034 9.72422 6.64858 9.64137 6.67757 9.66067C6.6955 9.69383 6.67479 9.95895 6.29214 10.1606C6.05569 10.2655 5.86878 10.2931 5.76745 10.0998C5.70608 9.97836 5.77222 9.51988 5.61917 9.62488C5.16339 10.8012 6.68522 10.9669 6.85554 9.67457C6.86651 9.63863 6.901 9.60274 6.92444 9.61102C6.93616 9.61649 6.94378 9.63039 6.94655 9.65797C6.9114 10.8261 5.77022 10.9034 5.57647 10.5389C5.52683 10.4505 5.513 10.26 5.50819 10.144C5.49925 10.0722 5.48132 10.0308 5.46132 10.0141C5.41511 9.9811 5.35308 10.0722 5.33925 10.2296C5.31999 10.3566 5.3255 10.3925 5.3255 10.5113C5.38612 11.4391 6.85624 11.0414 7.09616 10.2765ZM6.528 9.4784C6.528 9.4784 6.528 9.4784 6.52667 9.4784C6.51495 9.49778 6.47632 9.48949 6.44737 9.48949C6.41222 9.48949 6.39561 9.48117 6.37565 9.4536C6.36534 9.42317 6.39429 9.39281 6.40808 9.36793C6.40808 9.36793 6.40808 9.36793 6.40944 9.36793C6.41077 9.36793 6.41222 9.36246 6.41429 9.35969C6.42601 9.35133 6.44319 9.34309 6.46393 9.34031C6.49218 9.33754 6.52667 9.3486 6.5446 9.39C6.55694 9.42594 6.54456 9.46184 6.528 9.4784Z" fill="#F7F7F7"/>
<path d="M7.22926 8.43184H7.22996H7.23129C7.2534 8.44837 7.51883 8.44837 7.54918 8.43462V8.43184H7.54992C7.64164 8.39868 8.07531 7.90165 8.07531 7.90165C8.05398 7.88227 8.03188 7.86849 8.00984 7.84911C7.9857 7.82981 7.98773 7.8077 8.00984 7.78841C8.11668 7.72493 8.08359 7.58677 8.02773 7.52329C7.98086 7.50126 7.93672 7.49563 7.89746 7.49841C7.85883 7.50126 7.82367 7.51227 7.79473 7.52606C7.71953 7.60063 7.7016 7.71384 7.7602 7.78841C7.81816 7.81329 7.87609 7.87399 7.83672 7.90442C7.67402 8.07841 7.24797 8.37106 7.22652 8.42626V8.42911C7.22785 8.42911 7.22785 8.43188 7.22785 8.43188L7.22926 8.43184ZM7.87254 7.65306C7.87395 7.65306 7.87461 7.65028 7.87742 7.65028C7.90426 7.64751 7.93535 7.67509 7.95117 7.70829C7.96844 7.74419 7.95949 7.78009 7.93328 7.78837C7.9057 7.79388 7.87055 7.76907 7.85262 7.73313C7.83535 7.6945 7.845 7.6586 7.87254 7.65306ZM5.05926 10.6686C4.98828 10.8121 4.95793 10.7127 4.95172 10.6299C4.94 10.4752 4.95516 10.3345 4.97098 10.2212C4.98891 10.108 4.97098 10.1411 4.93516 10.1881C4.77312 10.4476 4.75863 10.8342 4.84824 10.9502C4.89586 11.0054 4.97379 11.0302 5.03238 11.0109C5.13371 10.9668 5.17926 10.7597 5.15437 10.6851C5.12066 10.6299 5.09379 10.6216 5.05926 10.6686ZM10.4093 7.92923C10.6003 8.18579 10.7813 8.44645 10.9586 8.7129C10.9861 8.90903 11.0082 9.10231 11.0209 9.29337C11.0498 9.71591 11.0588 10.2434 11.0326 10.6907C11.1119 10.6907 11.2388 10.5609 11.283 10.3703C11.3126 10.1024 11.2733 9.56122 11.2705 9.40388C11.2689 9.34052 11.2652 9.2652 11.261 9.18638C11.4664 9.52224 11.6664 9.87415 11.8621 10.2654C11.9339 10.2323 11.9187 9.83185 11.8759 9.77388C11.7201 9.43423 11.5022 9.10013 11.4333 8.97306C11.4081 8.92614 11.3232 8.79649 11.2222 8.647C11.2035 8.43411 11.1838 8.25399 11.1712 8.19985C11.1381 7.97341 11.263 8.2247 11.245 8.09216C11.205 7.86849 11.0809 7.71657 10.9341 7.50954C10.8872 7.44321 10.8893 7.42942 10.8155 7.52606C10.772 7.62513 10.7735 7.70755 10.7865 7.78552C10.767 7.75657 10.7438 7.72434 10.7079 7.68075C10.5824 7.57302 10.5748 7.56747 10.468 7.47911C10.4169 7.44044 10.2859 7.37423 10.2645 7.48462C10.2521 7.58677 10.2583 7.64208 10.2755 7.72489C10.2887 7.78009 10.3693 7.87673 10.4093 7.92923ZM10.8114 7.91032C10.8164 7.93306 10.8219 7.95563 10.8251 7.97892C10.8356 8.02497 10.8407 8.06708 10.8503 8.11243C10.8113 8.05868 10.7786 8.01458 10.7644 7.99825C10.669 7.88528 10.7652 7.92376 10.8114 7.91032Z" fill="#F7F7F7"/>
<path d="M11.9215 10.3703C11.738 10.5636 11.474 10.7983 11.1878 10.9061C11.1561 10.9392 11.263 11.091 11.4029 11.0883C11.6353 11.0635 11.8408 10.9309 12.0297 10.5857C12.0801 10.5057 12.1704 10.3345 12.1732 10.1992C12.1898 9.41765 12.1339 8.81011 12.0167 8.24401C12.0083 8.18878 12.0132 8.1253 12.0222 8.1087C12.0373 8.08936 12.0883 8.1087 12.1153 8.06452C12.1559 8.02311 12.0105 7.68624 11.9277 7.5564C11.8981 7.49835 11.8877 7.45979 11.8387 7.5619C11.7877 7.64749 11.7526 7.79663 11.7574 7.93194C11.8684 8.69968 11.9022 9.37616 11.976 10.1439C11.9808 10.2184 11.9711 10.3289 11.9215 10.3703ZM14.9851 8.23573C14.9775 8.18327 14.9513 8.05624 14.9617 8.03694C14.9775 8.001 15.0527 8.04241 15.0782 7.99823C15.1195 7.95956 14.8837 7.65304 14.7996 7.52327C14.7713 7.46534 14.761 7.42663 14.712 7.53155C14.6596 7.6144 14.6431 7.76632 14.6637 7.89886C14.7865 8.7355 14.8789 9.54464 14.8974 10.2848C14.8879 10.3565 14.8837 10.3952 14.8506 10.4808C14.7789 10.5774 14.6969 10.6934 14.6231 10.7486C14.5458 10.8039 14.3845 10.8591 14.3321 10.9005C14.1639 10.9972 14.1639 11.1104 14.3003 11.1131C14.5334 11.0855 14.8086 11.0662 14.9989 10.779C15.0492 10.6989 15.1091 10.4807 15.1112 10.3482C15.1292 9.56675 15.1016 8.80182 14.9851 8.23573ZM13.2233 9.06968C13.2247 8.96202 13.2344 8.82112 13.2412 8.73003C13.244 8.69694 13.2509 8.661 13.284 8.65276C13.3157 8.6444 13.3716 8.68585 13.373 8.64999C13.3674 8.58093 13.3529 8.48155 13.3144 8.4346C13.2613 8.35722 13.1213 8.37382 13.0971 8.49807C13.0971 8.54225 13.1185 8.56714 13.1151 8.60581C13.1088 8.63061 13.0841 8.64714 13.0268 8.61956C13.0358 8.61132 12.9889 8.54776 12.9889 8.54776C12.9448 8.51741 12.8848 8.54776 12.8455 8.57261C12.8261 8.61132 12.8089 8.67753 12.833 8.74663C12.8971 8.86526 13.1178 9.0669 13.2233 9.06968Z" fill="#F7F7F7"/>
<path d="M13.1501 8.01504C13.3036 8.20488 13.4611 8.4082 13.6192 8.61875C13.6521 9.04719 13.6621 9.44152 13.6956 9.8707C13.6901 10.053 13.6342 10.2987 13.5784 10.3208C13.5784 10.3208 13.4991 10.3705 13.4439 10.318C13.4033 10.3015 13.2447 10.0529 13.2447 10.0529C13.1633 9.9784 13.1088 9.99769 13.0509 10.0529C12.8909 10.2076 12.8206 10.4948 12.7116 10.6936C12.6827 10.7378 12.6041 10.7765 12.5172 10.6909C12.2938 10.3871 12.4248 9.95351 12.3965 10.064C12.1987 10.2877 12.2855 10.6577 12.3304 10.7378C12.3965 10.8676 12.449 10.9532 12.5751 11.0167C12.6924 11.105 12.7819 11.0498 12.8317 10.989C12.9475 10.8676 12.9503 10.5611 13.0041 10.5002C13.0434 10.3871 13.1385 10.4064 13.1853 10.4561C13.2322 10.5196 13.2853 10.5638 13.3516 10.5997C13.4598 10.6936 13.5901 10.7129 13.7176 10.6245C13.8059 10.5776 13.8632 10.5114 13.9128 10.387C13.9691 10.2385 13.9422 9.47449 13.929 9.04457C14.0105 9.15945 14.0894 9.27722 14.1694 9.39594C14.2046 9.77097 14.225 10.1421 14.2135 10.4975C14.2039 10.5665 14.4589 10.2849 14.4562 10.1523C14.4545 10.0355 14.4558 9.93117 14.4562 9.83277C14.5793 10.0295 14.6995 10.2288 14.8119 10.4312C14.8824 10.398 14.8582 9.99762 14.8148 9.94238C14.6973 9.74324 14.5448 9.52883 14.4273 9.36301C14.4041 9.15453 14.3721 8.90601 14.3589 8.83234C14.3362 8.71355 14.3128 8.53683 14.281 8.39597C14.2693 8.34078 14.2417 8.16406 14.2521 8.14746C14.2646 8.10879 14.3183 8.15023 14.3424 8.10328C14.3817 8.06187 14.2107 7.61726 14.1225 7.49023C14.0921 7.43222 14.0342 7.45152 13.9652 7.54551C13.8983 7.60621 13.9232 7.74429 13.948 7.87683C14.0124 8.21219 14.0666 8.5534 14.1121 8.8941C14.0287 8.77023 13.9271 8.6214 13.8278 8.47777C13.8203 8.4391 13.8149 8.41097 13.8149 8.4098C13.8149 8.40429 13.7998 8.13367 13.7887 8.07011C13.7859 8.04254 13.7797 8.03429 13.8073 8.03707C13.8363 8.06465 13.8391 8.06742 13.8577 8.07289C13.8866 8.07851 13.9128 8.02871 13.8956 7.98176C13.8059 7.81617 13.7143 7.64765 13.6239 7.48472C13.6032 7.45992 13.5743 7.43777 13.5391 7.4875C13.5067 7.51789 13.4716 7.56758 13.473 7.63668C13.4812 7.75539 13.5019 7.87687 13.5095 7.99566C13.5124 8.01144 13.5152 8.02769 13.518 8.04351C13.5078 8.03047 13.4942 8.0123 13.4888 8.00668C13.2571 7.76648 13.595 7.96801 13.4453 7.77746C13.3177 7.63941 13.2799 7.59523 13.1716 7.51234C13.1178 7.47922 13.084 7.41011 13.0661 7.5234C13.0592 7.62558 13.0509 7.74156 13.0578 7.82715C13.0578 7.87695 13.106 7.96258 13.1501 8.01504ZM13.5495 11.9169C13.4812 11.9252 13.2916 11.9445 13.2916 11.9445C13.0709 11.9197 12.9082 11.9169 12.6607 11.9058C12.6841 11.8782 12.7233 11.7595 12.6744 11.7181C12.662 11.707 12.6427 11.7015 12.6151 11.7015H12.6124H12.6103C12.6089 11.7015 12.6062 11.6987 12.6048 11.696C12.6048 11.696 12.6041 11.696 12.6041 11.6933C12.5917 11.6794 12.5841 11.6325 12.5765 11.6187H12.5751H12.5724H12.571H12.5697C12.4062 11.6601 12.4111 11.8313 12.5172 11.9058C10.7858 11.9058 8.12909 11.8782 7.56159 11.8782C7.24167 11.8782 6.23421 11.8396 6.21558 11.8396C6.43069 12.1544 6.74448 12.2179 7.15339 12.2262C7.92288 12.2262 11.4844 12.2179 12.4965 12.2179C12.4248 12.3449 12.5034 12.5493 12.5607 12.5879C12.562 12.5879 12.5634 12.5907 12.5648 12.5907C12.5669 12.5935 12.5682 12.5935 12.571 12.5935H12.5738C12.6414 12.61 12.671 12.5603 12.6944 12.5272C12.8013 12.5355 13.4144 12.5437 13.4716 12.5244C13.5095 12.5796 13.5481 12.6321 13.6198 12.6238C13.746 12.5962 13.8453 12.5824 13.8494 12.3256C13.8494 12.3256 13.8363 11.8893 13.5495 11.9169ZM13.4246 12.3836C13.4246 12.3863 13.4219 12.3863 13.4212 12.3863H13.4184C13.4157 12.3863 13.4143 12.3863 13.4143 12.3863C13.3322 12.3836 13.2853 12.3836 13.2033 12.3809C13.2033 12.3753 13.2005 12.3726 13.2005 12.3671C13.1805 12.3091 13.0406 12.3146 13.0067 12.3616H13.0054L13.004 12.3643C13.0033 12.3643 13.0033 12.3671 13.0019 12.3698C13.0019 12.3698 13.0019 12.3726 13.0019 12.3753C13.0006 12.3781 13.0006 12.3809 13.0006 12.3836C12.8896 12.3947 12.7903 12.3809 12.6779 12.3726C12.6468 12.3339 12.6503 12.2621 12.6882 12.2428C12.6882 12.2428 12.6882 12.2428 12.6896 12.2428C12.9406 12.2538 13.1778 12.2455 13.4316 12.2565C13.4715 12.2925 13.4508 12.3698 13.4246 12.3836ZM8.47175 8.72472C8.60479 8.77715 8.68827 8.5232 8.74339 8.24695C8.78132 8.16972 8.80894 8.16137 8.82819 8.20004C8.82269 8.57012 8.8544 8.65297 8.94886 8.76336C9.16054 8.92629 9.33573 8.78551 9.34815 8.76887C9.36194 8.75781 9.513 8.60597 9.513 8.60597C9.54812 8.5673 9.59706 8.56457 9.65019 8.60035C9.69909 8.64453 9.69288 8.72465 9.8005 8.77707C9.89011 8.81578 10.0832 8.7882 10.1287 8.70808C10.1894 8.60594 10.2025 8.57004 10.2301 8.53136C10.2742 8.47344 10.3466 8.49824 10.3466 8.51762C10.3403 8.5507 10.299 8.58109 10.3259 8.63906C10.3783 8.67773 10.39 8.65293 10.421 8.64453C10.5279 8.59211 10.6085 8.36015 10.6085 8.36015C10.612 8.27179 10.5644 8.28008 10.5313 8.29945C10.4913 8.32426 10.4886 8.33254 10.4472 8.35738C10.3955 8.36289 10.2934 8.39879 10.2445 8.32148C10.1921 8.22758 10.1921 8.09504 10.1521 8.00117C10.1521 7.9957 10.0845 7.85484 10.148 7.84375C10.1789 7.84922 10.2466 7.86859 10.2582 7.81066C10.2921 7.75539 10.1866 7.59527 10.1149 7.51789C10.0514 7.44887 9.96452 7.44058 9.88179 7.50965C9.8239 7.56207 9.83144 7.62558 9.81972 7.68086C9.80526 7.74711 9.8094 7.82719 9.87558 7.91277C9.93417 8.02871 10.0411 8.17789 10.0052 8.38504C10.0052 8.38504 9.94253 8.48441 9.83421 8.4734C9.79007 8.4623 9.71565 8.44297 9.67632 8.15578C9.64808 7.93488 9.6846 7.62558 9.59081 7.48476C9.55706 7.3964 9.53362 7.31078 9.45151 7.46273C9.42808 7.52066 9.33573 7.60906 9.40327 7.79129C9.45839 7.9073 9.48186 8.0923 9.45562 8.30219C9.41772 8.36289 9.40878 8.38219 9.35769 8.44297C9.28601 8.51758 9.20948 8.4982 9.15019 8.47054C9.09358 8.43199 9.05089 8.41262 9.02604 8.29668C9.02952 8.10609 9.03917 7.79679 9.00534 7.73058C8.95573 7.62562 8.87093 7.66426 8.83577 7.69465C8.66202 7.85199 8.57577 8.11996 8.52476 8.33254C8.47651 8.48719 8.42476 8.44301 8.3896 8.37945C8.30276 8.29945 8.29651 7.65875 8.19104 7.76363C8.02284 8.24426 8.28835 8.77445 8.47175 8.72472Z" fill="#F7F7F7"/>
<path d="M10.9824 9.76842C10.9824 9.76842 10.9837 9.76842 10.9837 9.76565C10.9851 9.76565 10.9851 9.76565 10.9851 9.76565V9.76291C10.9851 9.76291 10.9851 9.76014 10.9837 9.75741L10.9327 9.72698L9.94596 9.72147C9.93424 9.71873 9.92463 9.71045 9.91842 9.7076H9.91768C9.91768 9.70483 9.91768 9.70483 9.91768 9.70483H9.91635L9.91498 9.70209H9.91358V9.69932V9.69655V9.69377C9.91358 9.691 9.91498 9.691 9.91498 9.691C9.91975 9.68272 9.93217 9.67721 9.94596 9.6717C10.1832 9.64127 10.601 9.57221 10.628 9.16631C10.6245 8.95639 10.5397 8.82108 10.2811 8.78252C10.0922 8.79905 9.95768 8.98131 9.97838 9.18295C9.9701 9.23537 9.99772 9.34307 9.94256 9.35408C9.57912 9.39002 9.18338 9.61643 9.16893 9.7794H9.16822H9.16545H9.16404L9.16127 9.78217C9.16127 9.78217 9.16127 9.78217 9.16057 9.78217H9.15924H9.15783H9.15651L9.15233 9.7794C9.12893 9.77389 9.09854 9.73522 9.10408 9.67998C9.09026 9.39826 8.99791 9.08076 8.85444 8.83502C8.80416 8.78256 8.78135 8.76319 8.76619 8.76041H8.76486H8.76209H8.76068H8.76002C8.75932 8.76319 8.75791 8.76319 8.75514 8.76319L8.75381 8.76596C8.74272 8.77147 8.72826 8.79084 8.69928 8.81291C8.64893 8.87096 8.64209 8.90951 8.64486 9.02002C8.64693 9.03381 8.73721 9.28514 8.81518 9.46463C8.86686 9.65241 8.91584 9.86229 8.87998 10.0639C8.75932 10.329 8.51311 10.5637 8.27666 10.6935C8.15526 10.7322 8.05256 10.721 8.02494 10.6935V10.6907C7.95401 10.6465 7.9526 10.5637 7.95674 10.5471H7.95807C8.1567 10.4063 8.38631 10.2958 8.5649 9.92026C8.61658 9.77666 8.63319 9.69104 8.58143 9.46737C8.5601 9.38729 8.53319 9.3183 8.47799 9.26026C8.47799 9.26026 8.4794 9.26026 8.4794 9.25748C8.51315 9.24092 8.60076 9.30713 8.61522 9.26573C8.59381 9.15807 8.52209 9.01725 8.44147 8.94545C8.36971 8.8792 8.29318 8.87369 8.22701 8.93166C8.15455 8.97307 8.1394 9.11944 8.17322 9.24924C8.21252 9.34315 8.31936 9.35975 8.39529 9.55299V9.55576C8.39658 9.56682 8.42002 9.70213 8.38217 9.75741C8.35115 9.85401 7.95529 10.166 7.92772 10.1826L7.92494 10.1854C7.92494 10.1854 7.92494 10.1854 7.92494 10.1882H7.92361H7.92291H7.92154H7.92018C7.92018 10.1854 7.91877 10.1854 7.91877 10.1854C7.91877 10.1771 7.92158 10.1551 7.91877 10.1219C7.91744 10.0667 7.94088 9.93416 7.93947 9.90928H7.93815V9.90651H7.93674C7.80709 9.99209 7.76299 10.2517 7.73889 10.329C7.40787 10.5555 7.03279 10.7267 6.81627 10.9614C6.70322 11.1354 7.59338 10.7571 7.69612 10.7129C7.69752 10.7129 7.69889 10.7129 7.70029 10.7156C7.71955 10.735 7.71955 10.8095 7.77959 10.8786C7.87264 11.0056 8.0685 11.083 8.25951 11.036C8.58014 10.92 8.76494 10.6991 8.95451 10.456C8.98076 10.4175 9.0235 10.3871 9.06139 10.4175C9.19033 10.7074 9.56342 10.9118 10.0454 10.9338C10.1564 10.7985 10.104 10.7295 10.0584 10.7046C10.0439 10.6935 9.8185 10.6052 9.78404 10.5168C9.76268 10.4367 9.81506 10.3649 9.92334 10.3097C10.2315 10.2738 10.537 10.2296 10.8314 10.1357C10.8335 10.0363 10.8921 9.88725 10.9307 9.82369C10.9582 9.77948 10.9755 9.77397 10.9824 9.76842ZM10.1673 9.14987C10.1687 9.1444 10.1701 9.14162 10.1715 9.14162C10.1728 9.13885 10.1728 9.13885 10.1742 9.13612C10.1756 9.13326 10.1763 9.13326 10.179 9.13049C10.1839 9.12502 10.1942 9.12225 10.2024 9.12225C10.2259 9.11948 10.2535 9.12502 10.2797 9.14162C10.3197 9.16366 10.3431 9.19682 10.3403 9.22448V9.22725V9.23002H10.339C10.339 9.2328 10.3376 9.2328 10.3376 9.2328V9.23553C10.3356 9.23553 10.3342 9.2383 10.3314 9.24104C10.3121 9.26037 10.27 9.2576 10.228 9.2328C10.1894 9.21065 10.1653 9.17471 10.1673 9.15268V9.14987ZM9.77361 10.1385C9.66811 10.1744 9.56608 10.202 9.56608 10.3566C9.57912 10.4312 9.57709 10.4726 9.56467 10.4892C9.56467 10.4919 9.56193 10.4947 9.56053 10.4947C9.56053 10.4947 9.56053 10.4947 9.56053 10.4974H9.55986H9.55846V10.5002H9.55569C9.55436 10.5002 9.55225 10.503 9.55092 10.503C9.54951 10.5058 9.54674 10.5058 9.54674 10.5058C9.52053 10.5086 9.48401 10.4809 9.45572 10.4699C9.39233 10.4202 9.20818 10.3097 9.18197 10.064C9.17854 10.0087 9.2199 9.96174 9.28471 9.95623C9.28748 9.95623 9.29166 9.95623 9.2951 9.95623H9.29643C9.40612 9.98662 9.56885 9.98936 9.70951 10.0032C9.82397 10.0114 9.88049 10.0998 9.77361 10.1385ZM6.11225 7.76916C6.2267 7.82159 6.43975 7.79951 6.43076 7.61725C6.43076 7.60069 6.42733 7.54549 6.426 7.53166C6.40389 7.47643 6.33908 7.48748 6.32529 7.54553C6.32053 7.56205 6.33225 7.59248 6.31635 7.60346C6.30604 7.61174 6.27018 7.60623 6.27088 7.55651C6.27088 7.53991 6.25979 7.52061 6.25225 7.51233C6.24604 7.50686 6.24123 7.50408 6.22674 7.50408C6.21158 7.50686 6.21158 7.50959 6.20463 7.52338C6.19916 7.53717 6.19568 7.55104 6.19568 7.56479C6.19291 7.58408 6.18537 7.58967 6.17225 7.59244C6.15924 7.59244 6.16193 7.59522 6.14881 7.58682C6.1426 7.57858 6.13229 7.5758 6.13229 7.56201C6.13229 7.551 6.12951 7.52612 6.12678 7.51783C6.11986 7.50959 6.11018 7.50408 6.0985 7.50131C6.03576 7.50131 6.03162 7.57307 6.03576 7.60069C6.03014 7.60619 6.02807 7.73323 6.11225 7.76916Z" fill="#F7F7F7"/>
<path d="M9.60462 8.96763C9.60462 8.95103 9.5936 8.93446 9.58606 8.92618C9.57911 8.92071 9.57505 8.91794 9.56052 8.91794C9.5454 8.92071 9.5454 8.92345 9.53641 8.93724C9.53364 8.94829 9.52809 8.96212 9.52809 8.97864C9.52602 8.99794 9.51919 9.00352 9.50532 9.0063C9.49157 9.0063 9.49567 9.00907 9.48263 9.00067C9.47505 8.99243 9.46606 8.98966 9.46606 8.97587C9.46606 8.96212 9.46395 8.93997 9.45845 8.93169C9.45298 8.92345 9.44263 8.91794 9.43091 8.91517C9.3695 8.91517 9.36614 8.98692 9.36817 9.01454C9.36473 9.01731 9.36196 9.14438 9.44606 9.18302C9.55989 9.23544 9.83016 9.20505 9.76536 9.02833C9.76536 9.01181 9.76118 8.95649 9.75841 8.94274C9.73571 8.88751 9.6729 8.90134 9.65774 8.95649C9.65434 8.97587 9.66669 9.0063 9.6502 9.01727C9.64048 9.0256 9.60399 9.01731 9.60462 8.96763ZM11.3905 8.59755C11.5036 8.65005 11.7174 8.62517 11.7084 8.4429C11.7084 8.42915 11.705 8.37388 11.7036 8.35731C11.6795 8.30489 11.6154 8.31591 11.6029 8.37388C11.5974 8.39048 11.6091 8.42083 11.5926 8.42915C11.5843 8.44017 11.5471 8.43466 11.5485 8.38212C11.5485 8.36837 11.5374 8.34907 11.5298 8.33794C11.5236 8.33517 11.5188 8.33517 11.505 8.33517C11.4899 8.33517 11.4899 8.33794 11.4809 8.35177C11.4767 8.36556 11.472 8.37935 11.472 8.39595C11.4706 8.41251 11.4637 8.41806 11.4491 8.42079C11.4354 8.42079 11.4374 8.42352 11.4271 8.41528C11.4195 8.40977 11.4106 8.40423 11.4106 8.39048C11.4106 8.37661 11.4064 8.35454 11.4029 8.34352C11.3961 8.3379 11.3864 8.33517 11.3754 8.33243C11.3133 8.33243 11.3085 8.40423 11.3127 8.42911C11.3084 8.4347 11.3057 8.56169 11.3905 8.59755ZM11.467 7.88509C11.5063 7.99829 11.4367 8.10599 11.4781 8.12263C11.5174 8.14192 11.5705 8.00384 11.5912 7.87958C11.6146 7.77739 11.543 7.57306 11.4416 7.53165C11.3788 7.51509 11.2906 7.5538 11.3196 7.63661C11.305 7.67806 11.4429 7.81059 11.467 7.88509ZM12.5159 10.5471C12.5945 10.5471 12.6855 10.3676 12.7248 10.1881C12.7462 9.94235 12.7103 9.78774 12.7034 9.64138C12.6972 9.49782 12.54 8.31313 12.5069 8.20263C12.4683 7.99559 12.6607 8.17505 12.6386 8.05356C12.5724 7.90173 12.407 7.67806 12.3559 7.54552C12.3229 7.48747 12.3366 7.43778 12.2663 7.53165C12.2028 7.74427 12.1794 7.91548 12.2036 8.05079C12.3711 8.92345 12.5421 9.71876 12.5159 10.5471ZM14.4997 8.46774C14.5354 8.48712 14.5844 8.34079 14.6024 8.2054C14.6127 8.13087 14.5589 7.87407 14.4638 7.82435C14.4092 7.8106 14.3286 7.84915 14.3541 7.94028C14.3411 7.98446 14.4665 8.13087 14.4885 8.21099C14.5072 8.26618 14.4617 8.45122 14.4997 8.46774ZM7.59536 10.1909C7.62848 10.202 7.67536 10.097 7.69329 9.99763C7.70368 9.94239 7.65059 9.75181 7.56298 9.71876C7.50712 9.70763 7.43333 9.72149 7.45684 9.80161C7.45403 9.84579 7.57751 9.89821 7.58434 10.0004C7.60298 10.0418 7.55813 10.1771 7.59536 10.1909ZM5.21923 7.95692C5.25372 7.97071 5.30059 7.86032 5.31852 7.7581C5.32684 7.70009 5.31923 7.50685 5.18829 7.46813C5.13372 7.45427 5.0586 7.48747 5.08411 7.55649C5.07098 7.58966 5.18204 7.69731 5.20059 7.76079C5.21856 7.80497 5.18481 7.94591 5.21923 7.95692ZM7.77673 8.37934C7.67532 8.43188 7.63739 8.59477 7.7002 8.69138C7.75739 8.77149 7.85118 8.74118 7.8629 8.74118C7.96153 8.75493 8.02013 8.55606 8.02013 8.55606C8.02013 8.55606 8.0229 8.50087 7.90704 8.60587C7.85739 8.61688 7.85118 8.59755 7.83813 8.56997C7.82845 8.51751 7.82985 8.4677 7.85329 8.41528C7.87122 8.36559 7.83329 8.34356 7.77673 8.37934ZM8.5345 7.76915C8.5711 7.74427 8.58348 7.72497 8.59657 7.68079C8.61247 7.60341 8.51595 7.71661 8.50282 7.63099C8.48212 7.55099 8.54345 7.52056 8.60282 7.44048C8.60419 7.38802 8.60282 7.35212 8.53044 7.39352C8.48075 7.42665 8.37942 7.53161 8.37735 7.6531C8.37317 7.71935 8.36075 7.71934 8.40489 7.76352C8.43802 7.81059 8.4704 7.80497 8.5345 7.76915ZM9.21716 7.81337C9.28266 7.63665 9.28266 7.56204 9.2861 7.4847C9.26677 7.37153 9.18962 7.37704 9.13923 7.5013C9.11712 7.55099 9.09091 7.80224 9.09509 7.80224C9.0772 7.87681 9.17442 7.90997 9.21716 7.81337ZM13.5102 9.067C13.5102 9.067 12.9841 9.44251 12.9702 9.45364C12.9185 9.50056 12.9447 9.66341 12.9702 9.64688C13.0082 9.66063 13.5378 9.30169 13.5281 9.25751C13.5523 9.26032 13.564 9.0477 13.5102 9.067ZM13.4453 10.086C13.4812 10.1025 13.5743 9.98657 13.5708 9.84302C13.5812 9.76841 13.5446 9.49782 13.4509 9.45091C13.3943 9.43431 13.3177 9.48395 13.344 9.57509C13.3302 9.61927 13.4095 9.76845 13.4316 9.84856C13.4495 9.90649 13.4067 10.0667 13.4453 10.086ZM10.461 10.8702C10.461 10.8758 10.5052 10.9144 10.5576 10.884C10.6672 10.8426 10.7375 10.7984 10.892 10.7652C10.9313 10.7652 10.9306 10.6548 10.8651 10.6548C10.7816 10.6548 10.7051 10.6603 10.6203 10.7267C10.5693 10.7404 10.5603 10.7073 10.55 10.6796C10.5369 10.6106 10.5783 10.5609 10.5693 10.5113C10.5734 10.5113 10.5217 10.4643 10.4672 10.4919C10.4672 10.4919 10.3535 10.5692 10.3176 10.6217C10.2949 10.6383 10.2976 10.6548 10.3038 10.6852C10.3211 10.7238 10.3514 10.7128 10.3866 10.6908C10.4334 10.688 10.4562 10.7183 10.4514 10.7736C10.4307 10.8426 10.461 10.8675 10.461 10.8702ZM14.2755 10.8426C14.2541 10.8178 14.2066 10.8316 14.1741 10.8316C14.1576 10.8316 14.1073 10.8206 14.1314 10.7792C14.1514 10.7487 14.159 10.7322 14.1728 10.699C14.1873 10.6631 14.1756 10.6411 14.1183 10.6217C14.0631 10.6107 14.0404 10.619 13.9776 10.6217C13.9439 10.63 13.9322 10.6466 13.9259 10.6853C13.928 10.746 13.9659 10.7432 14.0052 10.7681C14.0273 10.7985 14.0431 10.8234 14.0038 10.8703C13.9659 10.9062 13.9411 10.9227 13.9031 10.9586C13.8866 10.989 13.8756 11.0332 13.928 11.047C14.026 11.0746 14.2541 10.9283 14.2541 10.9227C14.2928 10.8978 14.2796 10.8426 14.2755 10.8426Z" fill="#F7F7F7"/>
</svg>
