<svg width="21" height="20" viewBox="0 0 21 20" fill="none" xmlns="http://www.w3.org/2000/svg">
<path d="M17.7845 12.3798L14.104 10.7306L14.0938 10.7259C13.9028 10.6441 13.6943 10.6114 13.4874 10.6304C13.2805 10.6495 13.0816 10.7199 12.9087 10.8352C12.8883 10.8487 12.8688 10.8633 12.8501 10.879L10.9485 12.5001C9.74383 11.9149 8.50008 10.6806 7.91492 9.49149L9.53836 7.56102C9.55398 7.54149 9.56883 7.52196 9.58289 7.50087C9.69572 7.32845 9.76418 7.13081 9.78218 6.92553C9.80017 6.72026 9.76713 6.51373 9.68601 6.3243V6.31493L8.03211 2.62821C7.92487 2.38076 7.74049 2.17463 7.50647 2.04058C7.27246 1.90654 7.00137 1.85177 6.73367 1.88446C5.67505 2.02376 4.70334 2.54366 4.00003 3.34704C3.29671 4.15042 2.90988 5.18234 2.9118 6.25009C2.9118 12.4532 7.95867 17.5001 14.1618 17.5001C15.2295 17.502 16.2615 17.1152 17.0648 16.4119C17.8682 15.7085 18.3881 14.7368 18.5274 13.6782C18.5602 13.4106 18.5055 13.1396 18.3716 12.9056C18.2377 12.6716 18.0318 12.4871 17.7845 12.3798ZM14.1618 16.2501C11.5105 16.2472 8.96866 15.1927 7.09393 13.318C5.21919 11.4432 4.16469 8.90136 4.1618 6.25009C4.15886 5.48719 4.43371 4.7493 4.93503 4.17423C5.43634 3.59916 6.12984 3.22623 6.88601 3.12509C6.88571 3.1282 6.88571 3.13134 6.88601 3.13446L8.52664 6.80634L6.9118 8.73915C6.89541 8.75801 6.88052 8.77812 6.86726 8.7993C6.7497 8.97971 6.68073 9.18743 6.66704 9.40232C6.65335 9.61722 6.69541 9.83201 6.78914 10.0259C7.49695 11.4735 8.95554 12.9212 10.4188 13.6282C10.6141 13.7211 10.8301 13.7617 11.0458 13.7461C11.2615 13.7304 11.4694 13.6592 11.6493 13.5391C11.6694 13.5256 11.6887 13.511 11.7071 13.4954L13.6063 11.8751L17.2782 13.5196C17.2782 13.5196 17.2845 13.5196 17.2868 13.5196C17.1869 14.2769 16.8145 14.9718 16.2393 15.4743C15.6642 15.9769 14.9256 16.2527 14.1618 16.2501Z" fill="#2E225E"/>
</svg>
