<svg width="17" height="16" viewBox="0 0 17 16" fill="none" xmlns="http://www.w3.org/2000/svg">
<path d="M8.25002 1.5C7.12781 1.49976 6.02465 1.79006 5.04792 2.34264C4.0712 2.89523 3.25417 3.69128 2.67637 4.65331C2.09858 5.61534 1.77969 6.71058 1.75076 7.83241C1.72182 8.95425 1.98383 10.0645 2.51127 11.055L1.80189 13.1831C1.74313 13.3593 1.7346 13.5484 1.77726 13.7292C1.81992 13.9099 1.91209 14.0753 2.04342 14.2066C2.17476 14.3379 2.34007 14.4301 2.52084 14.4728C2.70161 14.5154 2.89069 14.5069 3.06689 14.4481L5.19502 13.7388C6.06675 14.2024 7.03265 14.4614 8.01941 14.496C9.00617 14.5306 9.98785 14.34 10.8899 13.9386C11.792 13.5372 12.5908 12.9355 13.2256 12.1793C13.8605 11.4231 14.3147 10.5322 14.5538 9.57421C14.793 8.61624 14.8107 7.61638 14.6057 6.65052C14.4007 5.68467 13.9784 4.77821 13.3708 3.99995C12.7632 3.22169 11.9862 2.59208 11.099 2.15891C10.2117 1.72574 9.23738 1.50041 8.25002 1.5ZM8.25002 13.5C7.28313 13.5007 6.3332 13.246 5.49627 12.7619C5.43499 12.7263 5.36686 12.7042 5.29639 12.697C5.22592 12.6898 5.15473 12.6976 5.08752 12.72L2.75002 13.5L3.52939 11.1625C3.55186 11.0953 3.5598 11.0242 3.55269 10.9537C3.54557 10.8832 3.52357 10.8151 3.48814 10.7537C2.88187 9.70557 2.63846 8.48661 2.79566 7.28598C2.95286 6.08534 3.50189 4.97014 4.35757 4.11337C5.21325 3.2566 6.32776 2.70617 7.5282 2.54745C8.72864 2.38873 9.9479 2.63061 10.9968 3.23555C12.0458 3.8405 12.8658 4.77469 13.3296 5.89322C13.7934 7.01175 13.8752 8.25208 13.5622 9.42181C13.2491 10.5915 12.5588 11.6253 11.5984 12.3626C10.6379 13.1 9.4609 13.4998 8.25002 13.5Z" fill="black"/>
</svg>
