<svg width="21" height="24" viewBox="0 0 21 24" fill="none" xmlns="http://www.w3.org/2000/svg">
<g clip-path="url(#clip0_154_3621)">
<path d="M0 7C0 6.33696 0.263392 5.70107 0.732233 5.23223C1.20107 4.76339 1.83696 4.5 2.5 4.5H17.5C18.163 4.5 18.7989 4.76339 19.2678 5.23223C19.7366 5.70107 20 6.33696 20 7V8.25H0V7ZM0 10.75V17C0 17.663 0.263392 18.2989 0.732233 18.7678C1.20107 19.2366 1.83696 19.5 2.5 19.5H17.5C18.163 19.5 18.7989 19.2366 19.2678 18.7678C19.7366 18.2989 20 17.663 20 17V10.75H0ZM3.75 13.25H5C5.33152 13.25 5.64946 13.3817 5.88388 13.6161C6.1183 13.8505 6.25 14.1685 6.25 14.5V15.75C6.25 16.0815 6.1183 16.3995 5.88388 16.6339C5.64946 16.8683 5.33152 17 5 17H3.75C3.41848 17 3.10054 16.8683 2.86612 16.6339C2.6317 16.3995 2.5 16.0815 2.5 15.75V14.5C2.5 14.1685 2.6317 13.8505 2.86612 13.6161C3.10054 13.3817 3.41848 13.25 3.75 13.25Z" fill="url(#paint0_linear_154_3621)"/>
</g>
<defs>
<linearGradient id="paint0_linear_154_3621" x1="0.849673" y1="4.89735" x2="12.5973" y2="22.781" gradientUnits="userSpaceOnUse">
<stop stop-color="#2E225E"/>
<stop offset="1" stop-color="#331E86"/>
</linearGradient>
<clipPath id="clip0_154_3621">
<rect width="20" height="20" fill="white" transform="translate(0 2)"/>
</clipPath>
</defs>
</svg>
