<svg width="41" height="40" viewBox="0 0 41 40" fill="none" xmlns="http://www.w3.org/2000/svg">
<rect x="0.621948" width="40" height="40" rx="8" fill="#F8FAFC"/>
<path d="M20.3012 10.2612C18.3728 10.2612 16.4878 10.8331 14.8844 11.9044C13.281 12.9757 12.0313 14.4985 11.2934 16.2801C10.5554 18.0616 10.3624 20.022 10.7386 21.9134C11.1148 23.8047 12.0434 25.542 13.4069 26.9055C14.7705 28.2691 16.5078 29.1977 18.3991 29.5739C20.2904 29.9501 22.2508 29.757 24.0324 29.0191C25.814 28.2811 27.3367 27.0314 28.408 25.428C29.4794 23.8247 30.0512 21.9396 30.0512 20.0112C30.0485 17.4262 29.0204 14.9478 27.1925 13.12C25.3646 11.2921 22.8862 10.264 20.3012 10.2612ZM20.3012 11.7612C21.8996 11.7595 23.4637 12.2248 24.8012 13.1V14.9487L22.7228 17.3619L19.7725 17.7612L19.7434 17.7406L17.8993 16.535C17.7358 16.4198 17.551 16.3385 17.3556 16.2958C17.1602 16.2532 16.9583 16.25 16.7617 16.2865C16.565 16.323 16.3777 16.3985 16.2107 16.5084C16.0436 16.6184 15.9003 16.7607 15.789 16.9269L13.8259 19.8612C13.6624 20.1058 13.5743 20.393 13.5728 20.6872L13.5512 24.0837L13.2447 24.2853C12.4868 23.034 12.0753 21.6038 12.0522 20.1411C12.0292 18.6784 12.3955 17.2359 13.1136 15.9614C13.8317 14.687 14.8757 13.6263 16.1388 12.8883C17.4018 12.1502 18.8383 11.7612 20.3012 11.7612ZM14.1409 25.4928L14.3772 25.3381C14.5834 25.202 14.7529 25.0171 14.8705 24.7997C14.9881 24.5824 15.0502 24.3393 15.0512 24.0922L15.0709 20.6956L17.0359 17.7612C17.0455 17.7686 17.0555 17.7755 17.0659 17.7819L18.91 18.9884C19.219 19.2065 19.5993 19.2993 19.974 19.2481L22.9262 18.8478C23.2903 18.7992 23.6238 18.6187 23.8637 18.3406L25.9422 15.9256C26.1746 15.6533 26.3019 15.3068 26.3012 14.9487V14.3553C27.3156 15.4285 28.0229 16.7547 28.349 18.1951C28.6751 19.6354 28.6079 21.137 28.1547 22.5425L26.6415 21.1587C26.4312 20.9656 26.1701 20.8366 25.8889 20.7868C25.6078 20.737 25.3182 20.7684 25.0543 20.8775L22.1987 22.0634C21.9599 22.1636 21.751 22.3237 21.5921 22.5281C21.4331 22.7326 21.3295 22.9745 21.2912 23.2306L21.0672 24.7484C21.0133 25.1137 21.0961 25.4861 21.2997 25.7942C21.5033 26.1023 21.8134 26.3244 22.1706 26.4181L24.1825 26.9487L24.4037 27.1709C22.7608 28.1135 20.8434 28.4613 18.9741 28.1556C17.1048 27.85 15.398 26.9096 14.1409 25.4928ZM25.645 26.2925L25.2418 25.8884C25.0538 25.6997 24.8189 25.5644 24.5612 25.4965L22.5512 24.9659L22.7753 23.4481L25.63 22.2612L27.52 23.9937C27.0383 24.8665 26.4031 25.6452 25.645 26.2925Z" fill="#94A3B8"/>
</svg>
