<svg width="17" height="16" viewBox="0 0 17 16" fill="none" xmlns="http://www.w3.org/2000/svg">
<path d="M11.875 2.5C10.5844 2.5 9.45438 3.055 8.75 3.99312C8.04562 3.055 6.91563 2.5 5.625 2.5C4.59764 2.50116 3.61269 2.90979 2.88624 3.63624C2.15979 4.36269 1.75116 5.34764 1.75 6.375C1.75 10.75 8.23688 14.2913 8.51312 14.4375C8.58594 14.4767 8.66732 14.4972 8.75 14.4972C8.83268 14.4972 8.91406 14.4767 8.98687 14.4375C9.26312 14.2913 15.75 10.75 15.75 6.375C15.7488 5.34764 15.3402 4.36269 14.6138 3.63624C13.8873 2.90979 12.9024 2.50116 11.875 2.5ZM8.75 13.425C7.60875 12.76 2.75 9.73063 2.75 6.375C2.75099 5.61281 3.05421 4.88212 3.59316 4.34316C4.13212 3.80421 4.86281 3.50099 5.625 3.5C6.84062 3.5 7.86125 4.1475 8.2875 5.1875C8.32517 5.27921 8.38925 5.35764 8.4716 5.41284C8.55396 5.46804 8.65086 5.49752 8.75 5.49752C8.84914 5.49752 8.94604 5.46804 9.0284 5.41284C9.11075 5.35764 9.17483 5.27921 9.2125 5.1875C9.63875 4.14562 10.6594 3.5 11.875 3.5C12.6372 3.50099 13.3679 3.80421 13.9068 4.34316C14.4458 4.88212 14.749 5.61281 14.75 6.375C14.75 9.72563 9.89 12.7594 8.75 13.425Z" fill="black"/>
</svg>
