<svg width="40" height="40" viewBox="0 0 40 40" fill="none" xmlns="http://www.w3.org/2000/svg">
<rect width="40" height="40" rx="8" fill="#F8FAFC"/>
<path d="M18.1667 21.8335C18.4654 22.1384 18.8219 22.3806 19.2154 22.546C19.6089 22.7113 20.0315 22.7965 20.4583 22.7965C20.8852 22.7965 21.3077 22.7113 21.7012 22.546C22.0947 22.3806 22.4513 22.1384 22.75 21.8335L26.4167 18.1668C27.0244 17.5591 27.3659 16.7347 27.3659 15.8752C27.3659 15.0156 27.0244 14.1913 26.4167 13.5835C25.8089 12.9757 24.9845 12.6343 24.125 12.6343C23.2654 12.6343 22.4411 12.9757 21.8333 13.5835L21.375 14.0419" stroke="#94A3B8" stroke-width="1.5" stroke-linecap="round" stroke-linejoin="round"/>
<path d="M21.8333 18.1671C21.5346 17.8622 21.1781 17.62 20.7846 17.4546C20.391 17.2893 19.9685 17.2041 19.5417 17.2041C19.1148 17.2041 18.6923 17.2893 18.2988 17.4546C17.9053 17.62 17.5487 17.8622 17.25 18.1671L13.5833 21.8337C12.9755 22.4415 12.6341 23.2659 12.6341 24.1254C12.6341 24.9849 12.9755 25.8093 13.5833 26.4171C14.1911 27.0249 15.0155 27.3663 15.875 27.3663C16.7345 27.3663 17.5589 27.0249 18.1667 26.4171L18.625 25.9587" stroke="#94A3B8" stroke-width="1.5" stroke-linecap="round" stroke-linejoin="round"/>
</svg>
