<svg width="21" height="20" viewBox="0 0 21 20" fill="none" xmlns="http://www.w3.org/2000/svg">
<path d="M10.8823 1.875C9.47959 1.87469 8.10065 2.23757 6.87973 2.9283C5.65882 3.61904 4.63754 4.6141 3.9153 5.81664C3.19305 7.01918 2.79445 8.38822 2.75828 9.79051C2.72211 11.1928 3.04962 12.5806 3.70891 13.8187L2.82219 16.4789C2.74874 16.6991 2.73809 16.9355 2.79141 17.1615C2.84474 17.3874 2.95994 17.5941 3.12411 17.7582C3.28828 17.9224 3.49492 18.0376 3.72089 18.0909C3.94685 18.1443 4.1832 18.1336 4.40344 18.0602L7.0636 17.1734C8.15326 17.753 9.36064 18.0767 10.5941 18.12C11.8275 18.1633 13.0546 17.925 14.1822 17.4232C15.3099 16.9215 16.3083 16.1694 17.1019 15.2241C17.8954 14.2789 18.4632 13.1652 18.7621 11.9678C19.061 10.7703 19.0832 9.52047 18.827 8.31315C18.5707 7.10584 18.0428 5.97276 17.2833 4.99993C16.5238 4.02711 15.5526 3.24009 14.4435 2.69864C13.3344 2.15718 12.1166 1.87551 10.8823 1.875ZM10.8823 16.875C9.67374 16.8758 8.48633 16.5575 7.44016 15.9523C7.36357 15.9079 7.2784 15.8803 7.19032 15.8713C7.10223 15.8622 7.01324 15.872 6.92923 15.9L4.00735 16.875L4.98157 13.9531C5.00965 13.8692 5.01958 13.7802 5.01069 13.6921C5.0018 13.604 4.9743 13.5188 4.93001 13.4422C4.17217 12.132 3.8679 10.6083 4.0644 9.10747C4.2609 7.60667 4.94719 6.21267 6.01679 5.14171C7.0864 4.07076 8.47953 3.38271 9.98008 3.18431C11.4806 2.98592 13.0047 3.28826 14.3159 4.04444C15.6271 4.80062 16.6521 5.96837 17.2318 7.36652C17.8116 8.76468 17.9138 10.3151 17.5225 11.7773C17.1312 13.2394 16.2684 14.5316 15.0678 15.4533C13.8672 16.375 12.396 16.8748 10.8823 16.875Z" fill="#2E225E"/>
</svg>
