<svg width="24" height="24" viewBox="0 0 24 24" fill="none" xmlns="http://www.w3.org/2000/svg">
<circle cx="12" cy="12" r="12" fill="white" fill-opacity="0.1"/>
<path d="M13.875 16.5C13.875 16.5995 13.8355 16.6948 13.7652 16.7652C13.6948 16.8355 13.5995 16.875 13.5 16.875H10.5C10.4005 16.875 10.3052 16.8355 10.2348 16.7652C10.1645 16.6948 10.125 16.5995 10.125 16.5C10.125 16.4005 10.1645 16.3052 10.2348 16.2348C10.3052 16.1645 10.4005 16.125 10.5 16.125H13.5C13.5995 16.125 13.6948 16.1645 13.7652 16.2348C13.8355 16.3052 13.875 16.4005 13.875 16.5ZM16.3973 14.2472C16.1367 13.7991 15.75 12.5311 15.75 10.875C15.75 9.88044 15.3549 8.92661 14.6517 8.22335C13.9484 7.52009 12.9946 7.125 12 7.125C11.0054 7.125 10.0516 7.52009 9.34835 8.22335C8.64509 8.92661 8.25 9.88044 8.25 10.875C8.25 12.5316 7.86281 13.7991 7.60266 14.2472C7.53622 14.3611 7.501 14.4905 7.50055 14.6224C7.5001 14.7543 7.53443 14.884 7.60008 14.9984C7.66573 15.1127 7.76038 15.2078 7.87449 15.2739C7.98859 15.34 8.11812 15.3749 8.25 15.375H15.75C15.8818 15.3748 16.0113 15.3399 16.1253 15.2737C16.2394 15.2076 16.334 15.1125 16.3996 14.9982C16.4652 14.8838 16.4995 14.7541 16.499 14.6223C16.4985 14.4905 16.4633 14.3611 16.3969 14.2472H16.3973Z" fill="white"/>
</svg>
