<svg width="21" height="24" viewBox="0 0 21 24" fill="none" xmlns="http://www.w3.org/2000/svg">
<path d="M16.082 3.54913C15.158 2.49595 13.4877 2.04443 11.3509 2.04443H5.14939C4.93797 2.04444 4.7335 2.11987 4.57272 2.25715C4.41194 2.39443 4.30541 2.58456 4.27227 2.79337L1.69007 19.1703C1.63874 19.4933 1.88881 19.7857 2.21612 19.7857H6.04474L7.00627 13.6869L6.97643 13.8779C7.04493 13.4468 7.41363 13.1288 7.85023 13.1288H9.66957C13.2437 13.1288 16.0423 11.6771 16.8598 7.47761C16.884 7.35341 16.9051 7.23252 16.9232 7.11442C16.82 7.05978 16.82 7.05978 16.9232 7.11442C17.1667 5.56224 16.9216 4.50569 16.082 3.54913Z" fill="#27346A"/>
<path d="M8.47124 6.55527C8.57591 6.50543 8.69039 6.4796 8.80632 6.47967H13.6682C14.2439 6.47967 14.7809 6.51714 15.2717 6.59612C15.409 6.61801 15.5456 6.64415 15.6813 6.6745C15.8736 6.71694 16.0637 6.76888 16.2509 6.83014C16.4921 6.91071 16.7168 7.00454 16.9233 7.11442C17.1667 5.56165 16.9216 4.50569 16.082 3.54913C15.1575 2.49595 13.4877 2.04443 11.3509 2.04443H5.14886C4.71219 2.04443 4.34071 2.36234 4.27227 2.79337L1.69007 19.1698C1.63874 19.4932 1.88881 19.7853 2.21559 19.7853H6.04474L8.03962 7.13484C8.05923 7.0105 8.10876 6.89278 8.18395 6.79182C8.25914 6.69086 8.35773 6.60968 8.47124 6.55527Z" fill="#27346A"/>
<path d="M16.8598 7.47794C16.0423 11.6768 13.2437 13.1292 9.66957 13.1292H7.84969C7.41309 13.1292 7.04432 13.4471 6.97649 13.8782L5.78028 21.4614C5.73558 21.744 5.95415 22.0001 6.24009 22.0001H9.46751C9.65239 22 9.83118 21.934 9.97174 21.8139C10.1123 21.6938 10.2054 21.5275 10.2343 21.3449L10.2657 21.1805L10.874 17.3253L10.9132 17.1123C10.9421 16.9297 11.0352 16.7634 11.1757 16.6433C11.3163 16.5232 11.495 16.4572 11.6799 16.4571H12.1629C15.2893 16.4571 17.7374 15.187 18.4528 11.5135C18.7514 9.97838 18.5969 8.6967 17.807 7.79644C17.5674 7.52376 17.2698 7.29856 16.9232 7.11475C16.9045 7.23345 16.8841 7.35374 16.8598 7.47794Z" fill="#2790C3"/>
<path d="M16.0677 6.77319C15.9403 6.73597 15.8116 6.70302 15.6819 6.67439C15.5461 6.64454 15.4096 6.61857 15.2723 6.59654C14.7811 6.51703 14.2445 6.47949 13.6682 6.47949H8.8069C8.69089 6.47923 8.57632 6.50528 8.47183 6.55569C8.35819 6.60993 8.25948 6.69107 8.18426 6.79205C8.10904 6.89304 8.05957 7.01084 8.04013 7.13526L7.00685 13.6868L6.97701 13.8778C7.04498 13.4467 7.41368 13.1287 7.85035 13.1287H9.67023C13.2443 13.1287 16.0428 11.677 16.8603 7.4775C16.8847 7.35329 16.9051 7.23294 16.9239 7.1143C16.7168 7.00502 16.4928 6.91059 16.2515 6.83055C16.1906 6.81037 16.1293 6.79124 16.0678 6.77319" fill="#1F264F"/>
</svg>
