<svg width="41" height="40" viewBox="0 0 41 40" fill="none" xmlns="http://www.w3.org/2000/svg">
<rect x="0.621948" width="40" height="40" rx="8" fill="#F8FAFC"/>
<path d="M17.6219 13H15.6219C15.0915 13 14.5828 13.2107 14.2077 13.5858C13.8327 13.9609 13.6219 14.4696 13.6219 15V27C13.6219 27.5304 13.8327 28.0391 14.2077 28.4142C14.5828 28.7893 15.0915 29 15.6219 29H25.6219C26.1524 29 26.6611 28.7893 27.0362 28.4142C27.4112 28.0391 27.6219 27.5304 27.6219 27V15C27.6219 14.4696 27.4112 13.9609 27.0362 13.5858C26.6611 13.2107 26.1524 13 25.6219 13H23.6219M17.6219 13C17.6219 13.5304 17.8327 14.0391 18.2077 14.4142C18.5828 14.7893 19.0915 15 19.6219 15H21.6219C22.1524 15 22.6611 14.7893 23.0362 14.4142C23.4112 14.0391 23.6219 13.5304 23.6219 13M17.6219 13C17.6219 12.4696 17.8327 11.9609 18.2077 11.5858C18.5828 11.2107 19.0915 11 19.6219 11H21.6219C22.1524 11 22.6611 11.2107 23.0362 11.5858C23.4112 11.9609 23.6219 12.4696 23.6219 13M20.6219 20H23.6219M20.6219 24H23.6219M17.6219 20H17.6319M17.6219 24H17.6319" stroke="#94A3B8" stroke-width="1.5" stroke-linecap="round" stroke-linejoin="round"/>
</svg>
