<svg width="41" height="40" viewBox="0 0 41 40" fill="none" xmlns="http://www.w3.org/2000/svg">
<rect x="0.621948" width="40" height="40" rx="8" fill="#F8FAFC"/>
<path d="M17.6219 22L23.6219 16L17.6219 22ZM18.1219 16.5H18.1319H18.1219ZM23.1219 21.5H23.1319H23.1219ZM27.6219 29V13C27.6219 12.4696 27.4112 11.9609 27.0362 11.5858C26.6611 11.2107 26.1524 11 25.6219 11H15.6219C15.0915 11 14.5828 11.2107 14.2077 11.5858C13.8327 11.9609 13.6219 12.4696 13.6219 13V29L17.1219 27L20.6219 29L24.1219 27L27.6219 29ZM18.6219 16.5C18.6219 16.6326 18.5693 16.7598 18.4755 16.8536C18.3817 16.9473 18.2546 17 18.1219 17C17.9893 17 17.8622 16.9473 17.7684 16.8536C17.6746 16.7598 17.6219 16.6326 17.6219 16.5C17.6219 16.3674 17.6746 16.2402 17.7684 16.1464C17.8622 16.0527 17.9893 16 18.1219 16C18.2546 16 18.3817 16.0527 18.4755 16.1464C18.5693 16.2402 18.6219 16.3674 18.6219 16.5ZM23.6219 21.5C23.6219 21.6326 23.5693 21.7598 23.4755 21.8536C23.3817 21.9473 23.2546 22 23.1219 22C22.9893 22 22.8622 21.9473 22.7684 21.8536C22.6746 21.7598 22.6219 21.6326 22.6219 21.5C22.6219 21.3674 22.6746 21.2402 22.7684 21.1464C22.8622 21.0527 22.9893 21 23.1219 21C23.2546 21 23.3817 21.0527 23.4755 21.1464C23.5693 21.2402 23.6219 21.3674 23.6219 21.5Z" stroke="#94A3B8" stroke-width="1.5" stroke-linecap="round" stroke-linejoin="round"/>
</svg>
