<svg width="24" height="24" viewBox="0 0 24 24" fill="none" xmlns="http://www.w3.org/2000/svg">
<circle cx="12" cy="12" r="12" fill="white" fill-opacity="0.1"/>
<path d="M16.8249 16.3125C16.7919 16.3695 16.7446 16.4169 16.6876 16.4498C16.6305 16.4827 16.5659 16.5 16.5 16.5H7.50001C7.43422 16.4999 7.3696 16.4825 7.31265 16.4496C7.25569 16.4167 7.20841 16.3693 7.17554 16.3123C7.14267 16.2553 7.12538 16.1907 7.1254 16.1249C7.12541 16.0591 7.14274 15.9945 7.17564 15.9375C7.88954 14.7033 8.9897 13.8183 10.2736 13.3987C9.63853 13.0207 9.14511 12.4446 8.86913 11.759C8.59315 11.0733 8.54986 10.3161 8.74592 9.60344C8.94198 8.89083 9.36654 8.26227 9.9544 7.8143C10.5423 7.36633 11.2609 7.12372 12 7.12372C12.7391 7.12372 13.4578 7.36633 14.0456 7.8143C14.6335 8.26227 15.058 8.89083 15.2541 9.60344C15.4502 10.3161 15.4069 11.0733 15.1309 11.759C14.8549 12.4446 14.3615 13.0207 13.7264 13.3987C15.0103 13.8183 16.1105 14.7033 16.8244 15.9375C16.8574 15.9945 16.8748 16.0591 16.8749 16.1249C16.8749 16.1908 16.8577 16.2554 16.8249 16.3125Z" fill="white"/>
</svg>
