<svg width="16" height="16" viewBox="0 0 16 16" fill="none" xmlns="http://www.w3.org/2000/svg">
<path d="M11.7238 9.0525L9.72375 8.0525C9.64502 8.01327 9.55734 7.9955 9.46955 8.00099C9.38177 8.00647 9.29698 8.03502 9.22375 8.08375L8.30562 8.69625C7.88416 8.46456 7.53732 8.11772 7.30562 7.69625L7.91812 6.77812C7.96685 6.7049 7.9954 6.62011 8.00089 6.53232C8.00637 6.44453 7.98861 6.35685 7.94937 6.27812L6.94937 4.27813C6.90793 4.19442 6.84386 4.124 6.76443 4.07484C6.68501 4.02568 6.5934 3.99976 6.5 4C5.83696 4 5.20107 4.26339 4.73223 4.73223C4.26339 5.20107 4 5.83696 4 6.5C4.00165 7.95818 4.58165 9.35617 5.61274 10.3873C6.64383 11.4184 8.04182 11.9983 9.5 12C9.8283 12 10.1534 11.9353 10.4567 11.8097C10.76 11.6841 11.0356 11.4999 11.2678 11.2678C11.4999 11.0356 11.6841 10.76 11.8097 10.4567C11.9353 10.1534 12 9.8283 12 9.5C12.0001 9.40711 11.9743 9.31604 11.9255 9.237C11.8767 9.15795 11.8068 9.09407 11.7238 9.0525ZM9.5 11C8.30693 10.9987 7.16311 10.5241 6.31948 9.68052C5.47585 8.83689 5.00132 7.69307 5 6.5C4.9999 6.1532 5.11998 5.81708 5.33979 5.54884C5.5596 5.2806 5.86557 5.09681 6.20562 5.02875L6.92312 6.46625L6.3125 7.375C6.26687 7.44345 6.23883 7.52209 6.23087 7.60397C6.22292 7.68585 6.23528 7.76842 6.26687 7.84438C6.62462 8.69461 7.30101 9.37101 8.15125 9.72875C8.22743 9.76175 8.31063 9.77525 8.39334 9.76805C8.47605 9.76085 8.55567 9.73317 8.625 9.6875L9.53813 9.07875L10.9756 9.79625C10.907 10.1367 10.7224 10.4428 10.4533 10.6623C10.1842 10.8819 9.84729 11.0012 9.5 11ZM8 1.5C6.87779 1.49976 5.77464 1.79006 4.79791 2.34264C3.82118 2.89523 3.00415 3.69128 2.42636 4.65331C1.84856 5.61534 1.52968 6.71058 1.50074 7.83241C1.47181 8.95425 1.73381 10.0645 2.26125 11.055L1.55187 13.1831C1.49312 13.3593 1.48459 13.5484 1.52725 13.7292C1.56991 13.9099 1.66207 14.0753 1.79341 14.2066C1.92474 14.3379 2.09006 14.4301 2.27083 14.4728C2.4516 14.5154 2.64068 14.5069 2.81687 14.4481L4.945 13.7388C5.81673 14.2024 6.78263 14.4614 7.76939 14.496C8.75615 14.5306 9.73783 14.34 10.6399 13.9386C11.542 13.5372 12.3408 12.9355 12.9756 12.1793C13.6105 11.4231 14.0647 10.5322 14.3038 9.57421C14.543 8.61624 14.5607 7.61638 14.3557 6.65052C14.1507 5.68467 13.7284 4.77821 13.1208 3.99995C12.5132 3.22169 11.7362 2.59208 10.8489 2.15891C9.96166 1.72574 8.98737 1.50041 8 1.5ZM8 13.5C7.03311 13.5007 6.08319 13.246 5.24625 12.7619C5.18497 12.7263 5.11684 12.7042 5.04638 12.697C4.97591 12.6898 4.90471 12.6976 4.8375 12.72L2.5 13.5L3.27937 11.1625C3.30184 11.0953 3.30978 11.0242 3.30267 10.9537C3.29556 10.8832 3.27356 10.8151 3.23812 10.7537C2.63186 9.70557 2.38844 8.48661 2.54564 7.28598C2.70284 6.08534 3.25187 4.97014 4.10755 4.11337C4.96324 3.2566 6.07775 2.70617 7.27818 2.54745C8.47862 2.38873 9.69789 2.63061 10.7468 3.23555C11.7958 3.8405 12.6158 4.77469 13.0796 5.89322C13.5434 7.01175 13.6252 8.25208 13.3121 9.42181C12.9991 10.5915 12.3088 11.6253 11.3483 12.3626C10.3879 13.1 9.21088 13.4998 8 13.5Z" fill="black"/>
</svg>
