<svg width="21" height="20" viewBox="0 0 21 20" fill="none" xmlns="http://www.w3.org/2000/svg">
<path d="M15.2724 11.3155L12.7724 10.0655C12.674 10.0165 12.5644 9.99425 12.4546 10.0011C12.3449 10.008 12.2389 10.0437 12.1474 10.1046L10.9997 10.8702C10.4729 10.5806 10.0393 10.147 9.74971 9.62019L10.5153 8.47253C10.5762 8.381 10.6119 8.27501 10.6188 8.16528C10.6256 8.05554 10.6034 7.94594 10.5544 7.84753L9.3044 5.34753C9.25259 5.2429 9.1725 5.15488 9.07322 5.09343C8.97394 5.03198 8.85944 4.99957 8.74268 4.99988C7.91388 4.99988 7.11902 5.32912 6.53297 5.91517C5.94692 6.50122 5.61768 7.29608 5.61768 8.12488C5.61975 9.94761 6.34474 11.6951 7.6336 12.984C8.92247 14.2728 10.67 14.9978 12.4927 14.9999C12.9031 14.9999 13.3094 14.919 13.6886 14.762C14.0677 14.605 14.4122 14.3748 14.7024 14.0846C14.9926 13.7944 15.2228 13.4499 15.3798 13.0708C15.5369 12.6916 15.6177 12.2853 15.6177 11.8749C15.6178 11.7588 15.5855 11.6449 15.5245 11.5461C15.4635 11.4473 15.3762 11.3675 15.2724 11.3155ZM12.4927 13.7499C11.0013 13.7482 9.57157 13.1551 8.51703 12.1005C7.4625 11.046 6.86933 9.61621 6.86768 8.12488C6.86756 7.69138 7.01765 7.27123 7.29242 6.93593C7.56718 6.60063 7.94964 6.37089 8.37471 6.28582L9.27159 8.08269L8.5083 9.21863C8.45127 9.30419 8.41622 9.4025 8.40627 9.50484C8.39632 9.60719 8.41178 9.71041 8.45127 9.80535C8.89845 10.8681 9.74394 11.7136 10.8067 12.1608C10.902 12.2021 11.006 12.2189 11.1094 12.2099C11.2127 12.2009 11.3123 12.1663 11.3989 12.1093L12.5403 11.3483L14.3372 12.2452C14.2515 12.6708 14.0207 13.0534 13.6844 13.3278C13.348 13.6022 12.9268 13.7514 12.4927 13.7499ZM10.6177 1.87488C9.21492 1.87457 7.83597 2.23745 6.61506 2.92818C5.39415 3.61892 4.37287 4.61398 3.65063 5.81652C2.92838 7.01906 2.52977 8.3881 2.49361 9.79039C2.45744 11.1927 2.78494 12.5805 3.44424 13.8186L2.55752 16.4788C2.48407 16.699 2.47341 16.9354 2.52674 17.1613C2.58007 17.3873 2.69527 17.594 2.85944 17.7581C3.02361 17.9223 3.23025 18.0375 3.45622 18.0908C3.68218 18.1441 3.91853 18.1335 4.13877 18.06L6.79893 17.1733C7.88859 17.7529 9.09597 18.0766 10.3294 18.1199C11.5629 18.1632 12.79 17.9249 13.9176 17.4231C15.0452 16.9213 16.0437 16.1693 16.8372 15.224C17.6308 14.2787 18.1986 13.1651 18.4975 11.9676C18.7964 10.7702 18.8186 9.52035 18.5623 8.31303C18.3061 7.10572 17.7782 5.97264 17.0186 4.99981C16.2591 4.02698 15.288 3.23997 14.1789 2.69851C13.0698 2.15706 11.8519 1.87538 10.6177 1.87488ZM10.6177 16.8749C9.40907 16.8757 8.22166 16.5574 7.17549 15.9522C7.0989 15.9078 7.01373 15.8802 6.92565 15.8711C6.83756 15.8621 6.74857 15.8719 6.66455 15.8999L3.74268 16.8749L4.7169 13.953C4.74498 13.869 4.75491 13.7801 4.74602 13.692C4.73713 13.6039 4.70963 13.5187 4.66534 13.4421C3.9075 12.1318 3.60323 10.6081 3.79973 9.10735C3.99623 7.60655 4.68252 6.21255 5.75212 5.14159C6.82173 4.07063 8.21486 3.38259 9.71541 3.18419C11.216 2.9858 12.74 3.28814 14.0512 4.04432C15.3624 4.8005 16.3874 5.96824 16.9672 7.3664C17.547 8.76456 17.6491 10.315 17.2579 11.7771C16.8666 13.2393 16.0037 14.5315 14.8031 15.4532C13.6025 16.3749 12.1313 16.8746 10.6177 16.8749Z" fill="#22C55E"/>
</svg>
